<svg width="294.132507" height="92.156250" viewBox="0 0 294.133 92.1562" fill="none" xmlns="http://www.w3.org/2000/svg" xmlns:xlink="http://www.w3.org/1999/xlink">
	<desc>
			Created with Pixso.
	</desc>
	<defs/>
	<path id="VSite" d="M83.48 5.68Q77.41 11.2 77.41 23.4Q77.41 25.63 78.01 27.69Q79.18 31.64 82.6 34.93Q87.78 39.93 95.19 43.15Q102.63 46.34 110.13 49.4Q117.63 52.46 122.78 56.84Q126.66 60.09 127.64 64.05Q127.97 65.39 127.97 66.81Q127.97 78.7 122.14 83.48Q122.07 83.53 122 83.59Q116.07 88.31 103.78 88.31Q92.78 88.31 86.56 84.28Q80.38 80.25 77.81 69.87L74.22 71.4Q76.71 81.23 83.02 86.3Q83.53 86.71 84.06 87.09Q91.25 92.15 103.78 92.15Q119.16 92.15 125.47 85.9Q131.82 79.62 131.82 66.81Q131.82 64.54 131.19 62.45Q130.01 58.55 126.63 55.31Q121.47 50.31 113.97 47.12Q106.47 43.9 99.03 40.84Q91.63 37.75 86.44 33.4Q82.6 30.18 81.6 26.25Q81.25 24.87 81.25 23.4Q81.25 17.03 83.03 12.93Q84.46 9.68 86.94 7.84Q87.61 7.35 88.35 6.96Q91.88 5.12 95.41 4.5Q98.94 3.84 104.03 3.84Q111.47 3.84 116.53 7.3L116.53 7.31Q121.6 10.75 124.28 19.31L110.44 29.68L116.72 29.68L128.63 20.71Q125.94 10.25 119.91 5.12Q119.47 4.75 119.01 4.4Q113.19 0 104.03 0Q89.97 0 83.69 5.5Q83.58 5.59 83.48 5.68ZM65.28 1.28L12.78 1.28L12.78 5.12L59.75 5.12L32.62 79.75L4.09 1.28L0 1.28L32.62 91L65.28 1.28ZM290.51 84.92Q291.27 84.15 291.94 83.31L289.13 80.75Q288.85 81.12 288.56 81.47Q282.79 88.31 268.91 88.31Q262.5 88.31 258.16 86.96Q253.82 85.62 250.16 82Q246.5 78.34 244.72 71.37Q242.94 64.37 242.94 53.75Q242.94 43.12 244.72 36.15Q246.5 29.18 250.16 25.53Q253.82 21.87 258.16 20.53Q262.5 19.18 268.91 19.18Q282.79 19.18 288.56 26.02Q288.85 26.37 289.13 26.75L256.75 53.75L262.75 53.75L294.13 27.5Q292.55 24.62 290.31 22.42Q283.08 15.34 268.91 15.34Q254.83 15.34 247.8 22.38Q246.83 23.34 246 24.43Q239.1 33.53 239.1 53.75Q239.1 73.96 246 83.06Q246.83 84.15 247.8 85.11Q254.83 92.15 268.91 92.15Q283.38 92.15 290.51 84.92ZM155.25 16.62L151.4 16.62L151.4 90.87L155.25 90.87L155.25 16.62ZM227.56 20.46L227.56 16.62L169.97 16.62L169.97 20.46L196.85 20.46L196.85 90.87L200.69 90.87L200.69 20.46L227.56 20.46Z" fill="#FFFFFF" fill-opacity="1.000000" fill-rule="evenodd"/>
</svg>
